<?xml version="1.0"?><svg width="744.09448819" height="1052.3622047" xmlns="http://www.w3.org/2000/svg">
 <title>Fire</title>

 <metadata id="metadata7">image/svg+xmlFire symbolFire symbol sign flame burn</metadata>
 <g>
  <title>Layer 1</title>
  <g externalResourcesRequired="false" id="layer1">
   <path fill="#ff0000" id="path2396" d="m272.519897,14.94742c-16.230194,24.597281 -17.47554,78.165586 29.231354,119.745878c53.852203,62.603561 67.529541,109.715103 66.907349,200.416473c-0.509277,74.220367 -27.844147,93.264709 -51.638031,159.495819c-28.110626,62.128723 -36.632416,91.982849 -16.293213,139.955261c7.19458,20.915894 18.385162,35.83783 32.572693,59.750671c-22.116913,-16.82373 -42.23587,-27.653259 -62.354797,-57.464294c-18.704361,-32.925537 -33.556686,-47.074219 9.246735,-181.783905c9.97049,-31.46167 23.94101,-78.92334 28.911499,-111.38501c1.885956,-22.174988 -0.228119,-55.187225 -13.342163,-82.524933c-36.936646,-55.198212 -46.050278,-50.602875 -94.378113,-82.594696c26.683884,54.765671 11.930206,80.441681 -65.299118,189.403961c-64.898254,105.166443 -92.705021,145.26593 -88.234562,216.222168c5.406982,85.818665 51.529644,158.436584 131.830326,217.835449c26.246307,19.41449 49.034607,23.844421 65.507263,30.393494l49.830185,11.355957c-20.185822,-13.961243 -37.371643,-21.922485 -60.557465,-41.883728c-47.777237,-48.49408 -75.347687,-108.335754 -80.378113,-174.113037c-2.990341,-39.102417 3.539169,-88.087769 5.37561,-48.13855c1.158539,7.982849 6.215408,33.651489 10.215332,39.159546c8,21.753052 44.89386,81.615601 78.354172,118.188843c16.867996,18.437195 51.541702,50.52832 78.098221,68.819153c48.40274,26.763245 69.805511,30.52655 106.208252,35.289795c31.416748,0 69.729797,-5.586487 57.012054,-4.747864c-65.1008,-96.363037 -67.487366,-100.771362 -71.196228,-162.024841c0.269073,-56.620972 20.407288,-69.172913 55.653137,-139.94928c43.798737,-87.951019 54.754913,-126.97348 55.035919,-192.314606c0.407776,-94.744232 -39.76947,-144.992996 -127.546692,-197.8918c-24.44696,-13.848083 -31.106323,-17.747742 -75.745422,-37.490967c-25.667389,-13.591988 -51.334747,-43.167919 -53.026184,-91.724958zm301.746704,266.493071c22.854065,34.829102 42.718689,86.641174 44.58551,123.468262c-5.0578,48.064972 -5.326172,51.399323 -60.832031,121.79718c-23.086975,33.720886 -36.707031,54.663086 -42.742065,68.475525c-17.083984,39.101074 -17.584106,137.038696 10.488403,190.179321l23.294312,44.30658l10.239258,-33.050293c7.876587,-25.273071 18.477478,-56.692444 73.260437,-97.002319c69.208496,-61.257751 79.863342,-79.255066 89.931091,-156.301575c1.05603,-50.985413 -5.437927,-88.152832 -38.29895,-148.558441c-34.29541,-56.086548 -64.621155,-74.210815 -109.925964,-113.31424z"/>
  </g>
 </g>
</svg>